PathFileType	4	(X/Y/Z)	Walk3.trc
DataRate	CameraRate	NumFrames	NumMarkers	Units	OrigDataRate	OrigDataStartFrame	OrigNumFrames
200.000000	200.000000	4	56	mm	200.000000	613	821
Frame#	Times		LWRR		RLFC		RBHD		RTH3		C7		RMFC		RToe		LElbow		RTB2		RMT1		RMT5		RTB3		LMT5		LWRU		LUA1		LCAR		RCAL		LACR1		RMMAL		RFA1		LASI		LLFC		LTH3		LTB2		LPSI		LCAL		LMMAL		LToe		RPSI		RLMAL		LLMAL		RUA1		LTH2		RFHD		RWRU		RBack		LBHD		LTH4		LMFC		LTB1		RCAR		LTH1		LTB3		RTH2		LTB4		LMT1		RElbow		RTH1		RTH4		RTB4		LFHD		RASI		RACR1		RWRR		T10		RTB1
			X1	Y1	Z1	X2	Y2	Z2	X3	Y3	Z3	X4	Y4	Z4	X5	Y5	Z5	X6	Y6	Z6	X7	Y7	Z7	X8	Y8	Z8	X9	Y9	Z9	X10	Y10	Z10	X11	Y11	Z11	X12	Y12	Z12	X13	Y13	Z13	X14	Y14	Z14	X15	Y15	Z15	X16	Y16	Z16	X17	Y17	Z17	X18	Y18	Z18	X19	Y19	Z19	X20	Y20	Z20	X21	Y21	Z21	X22	Y22	Z22	X23	Y23	Z23	X24	Y24	Z24	X25	Y25	Z25	X26	Y26	Z26	X27	Y27	Z27	X28	Y28	Z28	X29	Y29	Z29	X30	Y30	Z30	X31	Y31	Z31	X32	Y32	Z32	X33	Y33	Z33	X34	Y34	Z34	X35	Y35	Z35	X36	Y36	Z36	X37	Y37	Z37	X38	Y38	Z38	X39	Y39	Z39	X40	Y40	Z40	X41	Y41	Z41	X42	Y42	Z42	X43	Y43	Z43	X44	Y44	Z44	X45	Y45	Z45	X46	Y46	Z46	X47	Y47	Z47	X48	Y48	Z48	X49	Y49	Z49	X50	Y50	Z50	X51	Y51	Z51	X52	Y52	Z52	X53	Y53	Z53	X54	Y54	Z54	X55	Y55	Z55	X56	Y56	Z56

613	3.065	-24.38	820.12	-272.29	11.273	521.69	135.59	-179.8	1587.3	-45.135	-4.7528	564.04	139.43	-207.63	1452.9	18.804	-1.0494	483.53	11.224	284.03	58.96	105.23	-160.91	1065.4	-291.63	81.639	294.59	124.59	237.08	46.81	63.142	193.1	31.151	131.37	101.98	208.07	51.066	-382.91	23.766	-118.06	49.716	830.36	-259.82	-133.84	1200.9	-242.54	-106.19	933.29	-290.49	31.173	29.043	35.569	-120.56	1399.6	-155.54	109.58	74.703	24.986	-184.47	894.57	286.97	-102.92	1015	-156.96	-257.09	496.53	-118.58	-223.8	556.58	-130.12	-321.06	283.43	-107.19	-284.47	1011.1	-17.367	-553.24	81.044	-49.858	-461.59	91.208	-11.699	-291.74	29.018	-57.859	-280.02	1010.7	51.079	76.769	65.435	100.65	-482.44	90.91	-95.654	-127.93	1213.2	250.19	-145.25	640.2	-101.95	-4.2792	1629.1	-14.635	-94.809	799.2	236.01	-218.81	1338.1	168.26	-177.24	1575.8	91.374	-202.47	647.53	-147	-281.85	484.33	5.7286	-271.6	360.31	-34.604	-107.87	750.05	281.32	-182.88	736.25	-165.04	-373.38	205.56	-37.529	20.648	679.44	119.9	-323.17	283.36	-34.715	-344.32	28.471	-37.61	-205.76	1054.4	287.52	-72.437	737.46	178.77	-35.064	650.74	160.98	94.34	296.68	51.128	-3.3667	1624.6	60.136	-78.255	963.77	151.44	-89.424	1395.1	169.19	-173.02	774.33	251.47	-275.05	1195.8	19.116	84.09	393.65	55.199
614	3.07	-21.273	820.05	-271.61	17.196	522.29	135.88	-174.37	1587.6	-43.919	1.2352	564.8	139.77	-202.02	1453.1	19.894	4.0713	484.05	11.73	285.07	56.484	104.85	-156.6	1066	-290.69	85.333	294.4	124.84	237.8	44.946	62.905	193.83	29.63	131.49	104.35	207.67	51.234	-382.78	24.272	-117.76	52.877	829.92	-259.16	-129	1201.5	-241.64	-102.52	933.64	-289.66	31.493	29.593	35.892	-115.03	1400	-154.57	110.41	74.285	25.159	-178.31	894.29	287.41	-96.587	1015.5	-156.21	-249.96	496.34	-118.26	-216.59	556.2	-129.77	-316.43	284.07	-107.26	-278.64	1011.3	-17.233	-551.36	85.643	-49.825	-459.58	93.979	-11.874	-291.85	28.736	-57.658	-274.19	1011.2	51.283	77.71	65.333	100.92	-480.57	93.984	-95.77	-121.88	1213.1	250.81	-138.49	640.15	-101.35	1.1489	1629.5	-13.507	-88.809	798.75	236.5	-213.06	1338	169.17	-171.7	1576	92.585	-195.66	647.25	-146.51	-275.11	484.09	5.5575	-265.81	360.12	-34.639	-101.95	749.63	281.83	-176.42	736.08	-164.42	-369.85	206.93	-37.631	26.657	680.1	119.76	-318.49	283.95	-34.774	-344.15	28.372	-37.691	-199.43	1054.2	287.87	-66.15	738.36	178.83	-28.943	651.53	161.09	97.667	296.33	51.325	2.1175	1624.9	61.26	-72.486	964.11	151.78	-83.788	1395.2	170.15	-167.05	774	251.97	-269.29	1196	19.734	88.475	393.42	55.409
615	3.075	-18.321	820.02	-270.94	22.99	522.89	136.2	-168.95	1588	-42.699	7.1106	565.58	140.16	-196.4	1453.4	20.973	9.1088	484.6	12.233	285.98	54.212	104.54	-152.34	1066.7	-289.71	88.856	294.22	125.12	238.42	43.273	62.704	194.46	28.318	131.68	106.6	207.31	51.422	-382.58	24.874	-117.47	55.888	829.49	-258.52	-124.17	1202.1	-240.71	-98.982	934.07	-288.8	31.781	30.085	36.206	-109.48	1400.6	-153.59	111.11	73.941	25.325	-172.12	894.1	287.85	-90.267	1016.1	-155.45	-242.44	496.13	-117.97	-209.01	555.8	-129.42	-311.51	284.79	-107.38	-272.83	1011.6	-17.106	-549.18	90.555	-49.803	-457.31	96.933	-12.097	-292	28.475	-57.441	-268.39	1011.6	51.479	78.516	65.266	101.17	-478.46	97.265	-95.92	-115.81	1213	251.41	-131.48	640.16	-100.71	6.5811	1629.9	-12.376	-82.776	798.4	237.01	-207.3	1337.9	170.07	-166.16	1576.3	93.8	-188.56	646.97	-146.02	-267.98	483.79	5.3454	-259.65	359.92	-34.735	-96.003	749.32	282.35	-169.77	735.94	-163.77	-366.03	208.41	-37.784	32.576	680.75	119.68	-313.48	284.61	-34.887	-343.99	28.267	-37.77	-193.08	1054	288.21	-59.903	739.3	178.97	-22.892	652.34	161.28	100.88	296.01	51.55	7.6065	1625.3	62.386	-66.74	964.58	152.13	-78.144	1395.4	171.1	-161.05	773.77	252.46	-263.53	1196.2	20.345	92.736	393.21	55.651
616	3.08	-15.52	820.04	-270.26	28.63	523.47	136.55	-163.52	1588.5	-41.479	12.846	566.35	140.59	-190.79	1453.8	22.041	14.047	485.17	12.728	286.79	52.138	104.26	-148.15	1067.5	-288.7	92.206	294.07	125.4	238.94	41.78	62.522	195	27.21	131.92	108.74	207	51.618	-382.3	25.58	-117.19	58.75	829.06	-257.91	-119.35	1202.8	-239.76	-95.556	934.56	-287.91	32.036	30.517	36.506	-103.91	1401.2	-152.61	111.71	73.662	25.474	-165.9	894.01	288.29	-83.967	1016.8	-154.66	-234.53	495.89	-117.72	-201.07	555.37	-129.06	-306.28	285.57	-107.57	-267.03	1011.9	-16.977	-546.69	95.777	-49.801	-454.77	100.06	-12.376	-292.21	28.249	-57.209	-262.62	1012.2	51.671	79.2	65.232	101.39	-476.1	100.75	-96.112	-109.72	1213.1	251.99	-124.19	640.2	-100.03	12.015	1630.4	-11.243	-76.709	798.13	237.52	-201.53	1338	170.97	-160.62	1576.6	95.014	-181.19	646.68	-145.52	-260.43	483.4	5.1004	-253.12	359.74	-34.894	-90.027	749.1	282.88	-162.93	735.79	-163.1	-361.9	210	-37.993	38.394	681.39	119.67	-308.13	285.32	-35.055	-343.85	28.162	-37.842	-186.72	1053.9	288.53	-53.725	740.25	179.19	-16.939	653.14	161.55	103.96	295.73	51.794	13.098	1625.7	63.513	-61.017	965.16	152.49	-72.497	1395.7	172.03	-155.02	773.64	252.95	-257.78	1196.5	20.951	96.868	393.02	55.916
